<?xml version="1.0" encoding="UTF-8" standalone="no"?>
<!DOCTYPE svg PUBLIC "-//W3C//DTD SVG 1.1//EN" "http://www.w3.org/Graphics/SVG/1.1/DTD/svg11.dtd">
<svg width="100%" height="100%" viewBox="0 0 1234 386" version="1.1" xmlns="http://www.w3.org/2000/svg" xmlns:xlink="http://www.w3.org/1999/xlink" xml:space="preserve" xmlns:serif="http://www.serif.com/" style="fill-rule:evenodd;clip-rule:evenodd;stroke-linejoin:round;stroke-miterlimit:2;">
    <g transform="matrix(1,0,0,1,-342.95,-386.7)">
        <g>
            <g>
                <path d="M498.1,518.7L498.1,542.2L467.7,542.2L467.7,644.9L439.5,644.9L439.5,542.1L415,542.1L415,518.7L439.5,518.7L439.5,505.5C439.5,475.1 457.8,459 482.2,459C487,459 492.4,459.5 498.1,460.9L498.1,484C494.3,483.5 492.2,483.5 490.3,483.5C475.5,483.5 467.7,490.2 467.7,505.3L467.7,518.7L498.1,518.7Z" style="fill:white;fill-rule:nonzero;"/>
                <path d="M508.4,581.9C508.4,544.8 536.3,516.1 574.2,516.1C612.4,516.1 640.3,544.9 640.3,581.9C640.3,619 612.4,647.5 574.2,647.5C536.3,647.5 508.4,619 508.4,581.9ZM612.1,581.9C612.1,558.3 596,541.3 574.2,541.3C552.4,541.3 536.6,558.2 536.6,581.9C536.6,605.3 552.5,622.2 574.2,622.2C595.9,622.2 612.1,605.3 612.1,581.9Z" style="fill:white;fill-rule:nonzero;"/>
                <path d="M892.9,461.8L921.4,461.8L921.4,644.8L895.9,644.8L893.8,625.7C885.5,639.7 869.9,647.5 851.3,647.5C820.7,647.5 791.9,624.1 791.9,581.9C791.9,539.4 820.7,516.1 851.3,516.1C869.3,516.1 884.4,523.4 893,536.5L893,461.8L892.9,461.8ZM893.7,581.9C893.7,556.1 875.7,541.6 856.9,541.6C836.5,541.6 820.1,556.4 820.1,581.9C820.1,607.4 836.5,622.2 856.9,622.2C875.7,622.2 893.7,607.7 893.7,581.9Z" style="fill:white;fill-rule:nonzero;"/>
                <path d="M1044.1,518.8L1068.6,518.8L1068.6,644.8L1043.6,644.8L1041.4,625.5C1032.8,639.7 1016.7,647.5 998.4,647.5C967.5,647.5 938.5,624.1 938.5,581.9C938.5,539.4 967.5,516.1 998.4,516.1C1016.7,516.1 1032.8,523.9 1041.4,538.4L1044.1,518.8ZM1041.4,581.9C1041.4,556.6 1022.9,541.6 1004.3,541.6C984.1,541.6 966.7,556.6 966.7,581.9C966.7,607.4 984.2,622.2 1004.3,622.2C1023.1,622.2 1041.4,607.7 1041.4,581.9Z" style="fill:white;fill-rule:nonzero;"/>
                <path d="M1208.9,570.1L1208.9,644.8L1180.4,644.8L1180.4,575.2C1180.4,551.3 1167,541.6 1152.5,541.6C1136.6,541.6 1121.1,555.6 1121.1,577.3L1121.1,644.8L1092.9,644.8L1092.9,518.8L1117.9,518.8L1120.3,538.4C1129.4,523.1 1145.3,516.1 1161.1,516.1C1186.9,516.1 1208.9,533.8 1208.9,570.1Z" style="fill:white;fill-rule:nonzero;"/>
                <path d="M1373,581.9C1373,544.8 1400.9,516.1 1438.8,516.1C1477,516.1 1504.9,544.9 1504.9,581.9C1504.9,619 1477,647.5 1438.8,647.5C1400.9,647.5 1373,619 1373,581.9ZM1476.7,581.9C1476.7,558.3 1460.6,541.3 1438.8,541.3C1417,541.3 1401.2,558.2 1401.2,581.9C1401.2,605.3 1417.1,622.2 1438.8,622.2C1460.5,622.2 1476.7,605.3 1476.7,581.9Z" style="fill:white;fill-rule:nonzero;"/>
                <path d="M649.6,524.9C649.6,487.8 677.5,459.1 715.4,459.1C753.6,459.1 781.5,487.9 781.5,524.9C781.5,562 753.6,590.5 715.4,590.5C677.6,590.5 649.6,562 649.6,524.9ZM753.3,524.9C753.3,501.3 737.2,484.3 715.4,484.3C693.6,484.3 677.8,501.2 677.8,524.9C677.8,548.3 693.7,565.2 715.4,565.2C737.1,565.2 753.3,548.3 753.3,524.9Z" style="fill:white;fill-rule:nonzero;"/>
                <path d="M1331.1,518.8L1328.7,538.4C1319.8,523.9 1303.7,516.1 1285.7,516.1C1255.1,516.1 1226,539.2 1226,581.4C1226,623.6 1255,646.7 1285.7,646.7C1303.2,646.7 1318.8,639.2 1327.9,625.7L1327.9,638.3C1327.9,664.6 1311.5,675.4 1293.5,675.4C1276,675.4 1263.7,667.9 1259.3,655.5L1231.9,662.1C1239.6,686.5 1261.7,700.4 1293.5,700.4C1323.9,700.4 1355.8,682.9 1355.8,638.3L1355.8,518.8L1331.1,518.8ZM1291.6,621.4C1271.4,621.4 1254,606.4 1254,581.4C1254,556.4 1271.5,541.4 1291.6,541.4C1310.1,541.4 1328.4,555.9 1328.4,581.4C1328.5,606.9 1310.2,621.4 1291.6,621.4Z" style="fill:white;fill-rule:nonzero;"/>
            </g>
            <path d="M515.2,461.8C525.7,483.2 547.5,497.4 574.2,497.4C601.1,497.4 622.9,483.2 633.5,461.8L515.2,461.8Z" style="fill:rgb(255,95,90);fill-rule:nonzero;"/>
            <path d="M715.4,609.2C688.8,609.2 667,623.4 656.5,644.8L774.6,644.8C764,623.5 742.3,609.2 715.4,609.2Z" style="fill:rgb(255,155,0);fill-rule:nonzero;"/>
        </g>
    </g>
</svg>
